<svg height="512" stroke-miterlimit="10" viewBox="0 0 512 512" width="512" xmlns="http://www.w3.org/2000/svg" clip-rule="evenodd" stroke-linecap="round" stroke-linejoin="round"><path d="M0 0h512v512H0V0z" fill="#e1e1e1"/><path d="M266.927 104.629c-4.796-.195-9.601-.122-14.406.281-151.9 12.734-147.75 147.438-147.75 147.438-.921 81.026 58.932 155.585 151.469 155.125 92.536-.461 150.539-79.182 151-157.907.003-.577-.089-1.142-.094-1.718-2.312 21.393-14.185 38.595-12.437 35.625 0 0 18.326-44.344-11.844-63.75-12.845-8.263-23.457-7.743-32.031-3.313l-.032.25c-3.082 26.121-10.903 47.746-24.187 62.875-13.284 15.129-30.846 24.713-55.75 24.875-24.904.162-37.695-13.173-42.563-26.781-4.867-13.608-2.996-28.433-.968-33.219 2.028-4.786 2.856-7.397 4.864-10.337 2.008-2.941 5.572-8.42 5.572-8.42 11.472-16.339 29.227-22.213 44.782-25.337 15.555-3.123 20.438.188 20.438.188s-5.592 2.039-11.406 4.812c-4.411 2.104-6.781 3.26-13.125 5.969-9.516 4.064-23.154 19.474-23.154 19.474-13.096 23.9-7.763 36.139 1.404 42.932 11.933 8.844 31.187 3.532 31.187 3.532 34.295-18.58 43.225-64.561 38.219-101.219-5.007-36.658-21.531-63.625-21.531-63.625 15.179 9.099 25.499 21.046 32.5 33.594 5.77 10.342 9.28 21.095 11.375 31 .333 1.574.391 2.91.656 4.437 17.932 1.52 33.127 1.836 51.844 33.906 1.278 2.192 2.281 4.441 3.156 6.688-13.991-62.409-74.331-114.816-137.188-117.375zm19.188 13.844c4.017.108 21.391 2.839 21.5 20.968.108 18.13-16.607 21.704-20.406 21.813-3.8.108-22.142-1.854-22.25-21.938-.109-20.083 21.156-20.843 21.156-20.843z" fill="#bfbfbf"/></svg>