<svg stroke-miterlimit="10" viewBox="0 0 780 420" xmlns="http://www.w3.org/2000/svg" clip-rule="evenodd" stroke-linecap="round" stroke-linejoin="round"><g fill="#e60012"><path d="M182.161 58.629c-4.797-.195-9.601-.122-14.406.281-151.9 12.734-147.75 147.438-147.75 147.438-.92 81.026 58.932 155.585 151.469 155.125 92.536-.461 150.539-79.182 151-157.907.003-.577-.089-1.142-.094-1.718-2.312 21.393-14.185 38.595-12.438 35.625 0 0 18.327-44.344-11.843-63.75-12.845-8.263-23.457-7.743-32.032-3.313l-.031.25c-3.082 26.121-10.904 47.746-24.187 62.875-13.284 15.129-30.846 24.713-55.75 24.875-24.905.162-37.695-13.173-42.563-26.781-4.867-13.608-2.996-28.433-.969-33.219 2.028-4.786 2.857-7.397 4.865-10.337 2.007-2.941 5.571-8.42 5.571-8.42 11.473-16.339 29.228-22.213 44.783-25.337 15.555-3.123 20.438.188 20.438.188s-5.592 2.039-11.407 4.812c-4.41 2.104-6.781 3.26-13.125 5.969-9.515 4.064-23.153 19.474-23.153 19.474-13.096 23.9-7.764 36.139 1.403 42.932 11.934 8.844 31.188 3.532 31.188 3.532 34.294-18.58 43.225-64.561 38.219-101.219-5.007-36.658-21.532-63.625-21.532-63.625 15.18 9.1 25.5 21.046 32.5 33.594 5.771 10.342 9.281 21.095 11.375 31 .333 1.574.392 2.91.657 4.437 17.932 1.52 33.127 1.836 51.843 33.906 1.279 2.192 2.282 4.441 3.157 6.688-13.991-62.409-74.331-114.816-137.188-117.375zm19.188 13.844c4.016.108 21.391 2.84 21.5 20.968.108 18.13-16.607 21.704-20.407 21.813-3.799.108-22.141-1.854-22.25-21.938-.108-20.083 21.157-20.843 21.157-20.843zM408.657 162.71v-9.765h14.844v-3.516h12.891v3.516h16.406v9.765h-16.406v4.297h16.406v8.594h-16.406v4.688h16.797v8.593h-45.703v-8.593h15.625v-4.688h-14.454v-8.594h14.454v-4.297h-14.454zm.782 76.172v-46.484h42.968v36.719c0 6.771-3.515 10.026-10.546 9.765h-12.5v-8.203h6.64c1.823 0 2.604-.39 2.344-1.172v-1.562h-16.016v10.937h-12.89zm-27.735-89.062h11.719v26.172h12.891v10.547h-12.891v2.734h10.547l2.734 35.937c0 2.344.391 3.516 1.172 3.516v9.766h-3.125c-5.989.521-8.854-2.995-8.594-10.547l-1.562-28.125h-1.172v38.672h-11.719v-39.063h-1.172l-.781 26.953c-.26 8.855-3.906 13.151-10.937 12.891h-3.907v-10.938h1.172c1.042.261 1.823-1.302 2.344-4.687l.781-34.375h12.5v-2.734h-16.797v-10.547h16.797V149.82zm-1.953 22.265h-3.906c-7.031.521-10.287-3.515-9.766-12.109v-9.766h10.157v9.766c-.261 2.083.39 2.995 1.953 2.734h1.562v9.375zm27.735-8.593c.26 6.51-2.214 9.505-7.422 8.984h-5.078v-9.375h1.171c1.042.261 1.563-.521 1.563-2.344V150.21h9.766v13.282zm30.859 42.187v-4.297h-16.016v4.297h16.016zm0 12.891v-3.906h-16.016v3.906h16.016zM525.064 149.039h15.234l-17.187 78.125h14.062c2.344.52 3.516-.912 3.516-4.297v-31.25h14.062v33.593c.261 8.594-3.776 12.761-12.109 12.5h-34.375v-11.328l16.797-77.343zm-32.422 14.062h-27.344v-12.109h40.625v26.172c.26 6.77-2.995 9.895-9.766 9.375H478.97v13.281h26.953v27.734c0 7.031-3.646 10.547-10.937 10.547h-26.172v-10.156h20.703c2.083 0 3.125-1.042 3.125-3.125v-13.281h-26.953v-35.938h22.656c2.865.261 4.297-1.042 4.297-3.906v-8.594zM566.079 149.82h83.985v80.859c.521 7.031-2.474 10.287-8.985 9.766h-14.843v-10.547h7.812c2.083 0 3.125-1.172 3.125-3.516V162.32h-58.594v76.953h-12.5V149.82zm21.875 53.125l-8.984-34.766h10.547l3.906 16.406 4.297-16.015h19.531l4.297 14.453 4.297-14.453h10.156l-9.375 30.859 6.25 25.781H622.72l-1.563-7.421-3.906 12.89h-10.156l9.375-31.25-8.594-28.125-9.765 32.031 7.812 27.344h-10.547l-2.734-11.328-3.125 11.328h-9.766l8.203-27.734zM664.907 192.398v-16.016l14.063-25.39h15.625l-16.016 29.297h3.516l4.297-7.422h15.234l-19.531 34.765h16.797v11.328h-33.594v-8.203l10.938-18.359h-11.329zm41.016-32.813c1.302.261 2.344-.39 3.125-1.953l3.125-7.031h13.672l-1.953 4.297h29.687v11.719l-16.797 16.797 4.297 3.125c1.302 1.302 2.474 1.823 3.516 1.562h9.375v10.156h-17.188c-2.604.261-4.427-.39-5.468-1.953l-3.907-3.515-3.515 3.125c-1.563 1.823-3.386 2.604-5.469 2.343h-17.187v-9.765h9.765c1.042.26 2.084-.261 3.125-1.563l3.125-2.734-14.062-11.328h20.703l2.344 1.562 7.812-7.812h-15.234c-1.302 1.823-2.735 2.604-4.297 2.343h-12.891v-9.375h4.297zm-3.906 79.297v-36.718h51.172v27.734c.781 6.771-2.084 9.766-8.594 8.984h-42.578zm34.765-10.547c1.303.261 1.954-.52 1.954-2.343v-12.891H716.47v15.234h20.312zm-37.89 10.938h-33.985v-11.719h33.985v11.719z"/><g><path d="M368.717 262.436h8.227v26.156c-.282 8.578-4.641 13.008-13.078 13.289-8.297.141-12.657-4.148-13.079-12.867h8.438c0 4.781 1.547 7.172 4.641 7.172 2.812 0 4.359-2.391 4.64-7.172 0-.141.071-.352.211-.633v-25.945zM383.694 274.248h8.226v27.211h-8.226v-27.211zm-.211-11.812h8.648v6.961h-8.648v-6.961zM406.897 274.248v3.164l.211.211c1.406-2.531 4.148-3.867 8.226-4.007 4.782.703 7.735 2.671 8.86 5.906.281 1.687.492 3.094.633 4.219v17.718H416.6v-16.242c-.141-4.078-1.758-6.187-4.852-6.328-2.953.281-4.57 2.391-4.851 6.328v16.242h-8.016v-27.211h8.016zM439.17 287.537c0 5.344 1.758 8.016 5.274 8.016 3.375 0 5.133-2.672 5.273-8.016-.14-5.625-1.898-8.507-5.273-8.648-3.516.141-5.274 3.023-5.274 8.648zm18.774-13.289v24.68c.14 8.578-4.289 12.867-13.289 12.867-8.297 0-12.516-2.953-12.657-8.859h7.594c.141 2.109 1.688 3.234 4.641 3.375 4.5 0 6.328-3.024 5.484-9.07-1.687 2.39-4.219 3.585-7.594 3.585-6.89-.421-10.617-4.921-11.179-13.5.562-8.578 4.359-13.148 11.39-13.71 3.516 0 5.977 1.265 7.383 3.796v-3.164h8.227zM472.709 301.459h-8.015v-39.023h8.015v15.187h.211c1.407-2.531 4.149-3.867 8.227-4.007 4.781.703 7.734 2.671 8.859 5.906.281 1.687.492 3.094.633 4.219v17.718h-8.227v-16.242c-.14-4.078-1.757-6.187-4.851-6.328-2.953.281-4.57 2.391-4.852 6.328v16.242zM524.6 287.959c-.422 9-5.133 13.641-14.133 13.922-9.14-.281-13.851-4.922-14.133-13.922.282-9.14 4.993-13.922 14.133-14.343 9 .421 13.711 5.203 14.133 14.343zm-19.828 0c-.141 6.047 1.758 9 5.695 8.86 3.938.14 5.906-2.813 5.906-8.86 0-6.047-1.968-9.07-5.906-9.07-3.937 0-5.836 3.023-5.695 9.07zM538.522 274.248v3.164l.211.211c1.406-2.531 4.148-3.867 8.226-4.007 4.782.703 7.735 2.671 8.86 5.906.281 1.687.492 3.094.633 4.219v17.718h-8.227v-16.242c-.141-4.078-1.758-6.187-4.852-6.328-2.953.281-4.57 2.391-4.851 6.328v16.242h-8.016v-27.211h8.016zM570.795 287.537c0 5.344 1.758 8.016 5.274 8.016 3.375 0 5.133-2.672 5.273-8.016-.14-5.625-1.898-8.507-5.273-8.648-3.516.141-5.274 3.023-5.274 8.648zm18.774-13.289v24.68c.14 8.578-4.289 12.867-13.289 12.867-8.297 0-12.516-2.953-12.657-8.859h7.594c.141 2.109 1.688 3.234 4.641 3.375 4.5 0 6.328-3.024 5.484-9.07-1.687 2.39-4.219 3.585-7.594 3.585-6.89-.421-10.617-4.921-11.179-13.5.562-8.578 4.359-13.148 11.39-13.71 3.516 0 5.977 1.265 7.383 3.796v-3.164h8.227zM637.241 262.436h8.437v24.469c-.422 9.703-6.047 14.695-16.875 14.976-11.109-.281-16.805-5.273-17.086-14.976v-24.469h8.438v21.305c-.563 8.718 2.32 12.867 8.648 12.445 6.047.422 8.859-3.727 8.438-12.445v-21.305zM661.287 274.248v3.164l.211.211c1.407-2.531 4.149-3.867 8.227-4.007 4.781.703 7.734 2.671 8.859 5.906.282 1.687.493 3.094.633 4.219v17.718h-8.226v-16.242c-.141-4.078-1.758-6.187-4.852-6.328-2.953.281-4.57 2.391-4.852 6.328v16.242h-8.015v-27.211h8.015zM685.967 274.248h8.227v27.211h-8.227v-27.211zm-.211-11.812h8.649v6.961h-8.649v-6.961zM728.155 287.959c-.422 9-5.133 13.641-14.133 13.922-9.141-.281-13.852-4.922-14.133-13.922.281-9.14 4.992-13.922 14.133-14.343 9 .421 13.711 5.203 14.133 14.343zm-19.828 0c-.141 6.047 1.757 9 5.695 8.86 3.937.14 5.906-2.813 5.906-8.86 0-6.047-1.969-9.07-5.906-9.07-3.938 0-5.836 3.023-5.695 9.07zM742.077 274.248v3.164l.21.211c1.407-2.531 4.149-3.867 8.227-4.007 4.781.703 7.734 2.671 8.859 5.906.282 1.687.493 3.094.633 4.219v17.718h-8.226v-16.242c-.141-4.078-1.758-6.187-4.852-6.328-2.953.281-4.57 2.391-4.851 6.328v16.242h-8.016v-27.211h8.016z"/></g></g></svg>